<?xml version="1.0" standalone="no"?>
<!DOCTYPE svg PUBLIC "-//W3C//DTD SVG 20010904//EN"
 "http://www.w3.org/TR/2001/REC-SVG-20010904/DTD/svg10.dtd">
<svg version="1.0" xmlns="http://www.w3.org/2000/svg"
 width="300.000000pt" height="300.000000pt" viewBox="0 0 300.000000 300.000000"
 preserveAspectRatio="xMidYMid meet">
<metadata>
Created by potrace 1.14, written by Peter Selinger 2001-2017
</metadata>
<g transform="translate(0.000000,300.000000) scale(0.100000,-0.100000)"
fill="#000000" stroke="none">
<path d="M2101 2010 c-28 -13 -83 -61 -155 -134 -61 -63 -124 -121 -141 -129
-39 -18 -62 -11 -160 49 -72 44 -86 48 -137 47 -95 -1 -158 -56 -208 -178 -18
-45 -25 -53 -36 -44 -11 9 -18 8 -30 -2 -12 -10 -15 -24 -11 -60 6 -46 5 -48
-24 -54 -17 -4 -42 -13 -57 -21 -42 -22 -48 -18 -78 46 -15 33 -31 60 -36 60
-4 0 -7 5 -5 11 1 6 -3 13 -9 16 -13 4 -22 -34 -30 -117 -6 -62 -7 -63 -51
-78 -35 -12 -37 -10 -47 58 -3 19 -10 50 -15 68 -5 18 -10 35 -10 37 -6 50
-16 85 -24 82 -15 -5 -21 -49 -21 -170 -1 -93 -3 -108 -18 -113 -10 -3 -18
-13 -19 -22 0 -9 -2 -48 -5 -87 -11 -145 -17 -128 50 -142 61 -12 239 -11 357
2 l66 7 -2 -31 c-1 -17 -5 -34 -9 -38 -4 -4 -36 -8 -72 -9 -124 -4 -199 -13
-234 -27 -19 -8 -44 -18 -55 -22 -11 -5 -27 -9 -35 -10 -34 -4 -60 -17 -54
-27 4 -6 30 -8 73 -3 187 19 388 23 544 12 l67 -5 0 34 c0 19 -6 37 -12 39
-16 6 -57 13 -78 14 -9 1 -17 11 -18 26 -1 13 -3 30 -4 36 -2 8 12 14 37 16
22 1 48 5 58 7 12 3 17 -2 18 -17 0 -28 8 -96 13 -122 3 -11 5 -23 5 -27 3
-20 777 -13 843 8 12 3 27 -1 38 -11 14 -12 28 -15 47 -11 15 4 44 9 63 12 19
3 41 11 47 18 18 17 19 228 2 344 -5 33 3 74 17 79 18 7 35 -13 27 -33 -14
-38 80 -159 135 -172 34 -8 78 -9 103 -2 53 15 109 81 116 135 5 46 9 52 41
58 27 5 29 9 31 56 1 53 1 54 -51 54 -16 0 -41 61 -54 135 -10 51 -98 116
-126 93 -2 -2 -12 -4 -23 -6 -49 -10 -94 -36 -112 -67 -18 -31 -35 -93 -35
-129 1 -26 -91 -17 -94 9 -17 157 -85 324 -164 402 -69 70 -155 88 -239 50z
m707 -380 c28 -26 28 -36 0 -77 -24 -34 -30 -35 -90 -10 -16 7 -29 18 -29 24
-1 7 -2 19 -3 26 -1 6 2 21 7 33 13 30 84 32 115 4z m-13 -208 c15 -12 24 -22
19 -22 -4 0 -3 -5 4 -12 29 -29 -1 -79 -45 -72 -7 1 -17 2 -22 3 -4 0 -20 12
-35 26 -20 18 -26 34 -26 63 l0 40 39 -2 c21 -1 50 -12 66 -24z m-444 -231 c1
-9 3 -37 5 -62 2 -31 -1 -46 -9 -46 -7 -1 -39 -5 -72 -9 -33 -4 -73 -8 -90 -8
-29 -1 -30 1 -28 39 2 22 5 54 8 70 l5 30 90 1 c75 0 90 -2 91 -15z m-348 -49
c0 -29 -1 -56 -2 -60 -1 -5 -24 -9 -52 -11 -28 -1 -72 -4 -98 -7 -25 -3 -69
-6 -97 -8 l-51 -4 -1 41 c-1 23 -5 49 -8 59 -4 13 0 18 13 19 10 0 27 2 38 5
11 2 65 7 120 10 55 4 101 8 103 9 2 2 11 2 20 1 13 -2 16 -14 15 -54z"/>
<path d="M453 1428 c-49 -11 -55 -24 -16 -39 29 -11 43 -26 43 -46 0 -21 -38
-15 -83 14 -23 15 -53 33 -67 41 -34 18 -118 22 -157 6 -17 -7 -33 -11 -35 -9
-11 11 -138 -130 -138 -154 0 -12 23 -15 34 -4 4 4 19 9 33 11 15 2 45 14 67
27 54 31 85 24 141 -34 40 -41 50 -46 102 -52 l58 -5 -40 -18 c-36 -17 -38
-19 -21 -31 17 -13 43 -13 119 1 32 5 86 30 130 58 32 22 36 15 6 -13 -29 -27
-10 -33 39 -11 42 19 70 60 56 82 -4 6 1 8 15 3 11 -3 21 -2 21 3 0 5 -24 17
-54 27 -49 17 -57 24 -81 71 -15 29 -34 56 -43 60 -45 19 -79 22 -129 12z"/>
</g>
</svg>
